<?xml version="1.0" encoding="UTF-8"?>
<svg xmlns="http://www.w3.org/2000/svg"
  width="900" height="314"
  viewBox="0 0 900 314">
<rect width="100%" height="100%" fill="#1e1e2e"/>
<text x="12" y="32"
      font-family="system-ui, -apple-system, sans-serif"
      font-size="16px"
      font-weight="600"
      fill="#cdd6f4">Immune Checkpoint Inhibitor Trials</text>
<text x="22" y="74"
        font-family="system-ui, -apple-system, sans-serif"
        font-size="12px"
        font-weight="500"
        fill="#cdd6f4">Study</text>
<line x1="12" x2="888"
    y1="88" y2="88"
    stroke="#45475a" stroke-width="1"/>
<line x1="387" x2="387" y1="88" y2="270"
    stroke="#6c7086" stroke-width="1" stroke-dasharray="6,4"/>

    <g class="interval">
      <!-- CI line -->
      <line x1="308.97281559945236" x2="347.866830607686" y1="102" y2="102"
        stroke="#bac2de" stroke-width="1.5"/>
      <!-- Whiskers -->
      <line x1="308.97281559945236" x2="308.97281559945236" y1="98" y2="106"
        stroke="#bac2de" stroke-width="1.5"/>
      <line x1="347.866830607686" x2="347.866830607686" y1="98" y2="106"
        stroke="#bac2de" stroke-width="1.5"/>
      <!-- Point -->
      <rect x="322.58160513620487" y="96"
        width="12" height="12" fill="#f38ba8"/>
    </g>

    <g class="interval">
      <!-- CI line -->
      <line x1="323.1007523178298" x2="360.18305826317805" y1="130" y2="130"
        stroke="#bac2de" stroke-width="1.5"/>
      <!-- Whiskers -->
      <line x1="323.1007523178298" x2="323.1007523178298" y1="126" y2="134"
        stroke="#bac2de" stroke-width="1.5"/>
      <line x1="360.18305826317805" x2="360.18305826317805" y1="126" y2="134"
        stroke="#bac2de" stroke-width="1.5"/>
      <!-- Point -->
      <rect x="335.8516236270559" y="124"
        width="12" height="12" fill="#f38ba8"/>
    </g>

    <g class="interval">
      <!-- CI line -->
      <line x1="321.2032896220357" x2="368.7925707846166" y1="158" y2="158"
        stroke="#bac2de" stroke-width="1.5"/>
      <!-- Whiskers -->
      <line x1="321.2032896220357" x2="321.2032896220357" y1="154" y2="162"
        stroke="#bac2de" stroke-width="1.5"/>
      <line x1="368.7925707846166" x2="368.7925707846166" y1="154" y2="162"
        stroke="#bac2de" stroke-width="1.5"/>
      <!-- Point -->
      <rect x="338.90550524464254" y="152"
        width="12" height="12" fill="#f38ba8"/>
    </g>

    <g class="interval">
      <!-- CI line -->
      <line x1="304.530402505407" x2="357.57713693946965" y1="186" y2="186"
        stroke="#bac2de" stroke-width="1.5"/>
      <!-- Whiskers -->
      <line x1="304.530402505407" x2="304.530402505407" y1="182" y2="190"
        stroke="#bac2de" stroke-width="1.5"/>
      <line x1="357.57713693946965" x2="357.57713693946965" y1="182" y2="190"
        stroke="#bac2de" stroke-width="1.5"/>
      <!-- Point -->
      <rect x="326.07184252631055" y="180"
        width="12" height="12" fill="#f38ba8"/>
    </g>

    <g class="interval">
      <!-- CI line -->
      <line x1="337.0840313363198" x2="377.7843132722461" y1="214" y2="214"
        stroke="#bac2de" stroke-width="1.5"/>
      <!-- Whiskers -->
      <line x1="337.0840313363198" x2="337.0840313363198" y1="210" y2="218"
        stroke="#bac2de" stroke-width="1.5"/>
      <line x1="377.7843132722461" x2="377.7843132722461" y1="210" y2="218"
        stroke="#bac2de" stroke-width="1.5"/>
      <!-- Point -->
      <rect x="351.57713693946965" y="208"
        width="12" height="12" fill="#f38ba8"/>
    </g>
<polygon points="162,242 162,237 162,242 162,247"
    fill="#89b4fa"
    stroke="#74c7ec"
    stroke-width="1"/>
<g transform="translate(0, 270)"><line x1="162" x2="387"
    y1="0" y2="0" stroke="#45475a" stroke-width="1"/>
<line x1="162" x2="162" y1="0" y2="4"
      stroke="#45475a" stroke-width="1"/>
<text x="162" y="16" text-anchor="middle"
      font-family="system-ui, -apple-system, sans-serif"
      font-size="12px"
      fill="#a6adc8">0.10</text>
<line x1="229.73174902439578" x2="229.73174902439578" y1="0" y2="4"
      stroke="#45475a" stroke-width="1"/>
<text x="229.73174902439578" y="16" text-anchor="middle"
      font-family="system-ui, -apple-system, sans-serif"
      font-size="12px"
      fill="#a6adc8">0.20</text>
<line x1="319.26825097560425" x2="319.26825097560425" y1="0" y2="4"
      stroke="#45475a" stroke-width="1"/>
<text x="319.26825097560425" y="16" text-anchor="middle"
      font-family="system-ui, -apple-system, sans-serif"
      font-size="12px"
      fill="#a6adc8">0.50</text>
<line x1="387" x2="387" y1="0" y2="4"
      stroke="#45475a" stroke-width="1"/>
<text x="387" y="16" text-anchor="middle"
      font-family="system-ui, -apple-system, sans-serif"
      font-size="12px"
      fill="#a6adc8">1.00</text>
<text x="274.5" y="28"
      text-anchor="middle"
      font-family="system-ui, -apple-system, sans-serif"
      font-size="12px"
      font-weight="500"
      fill="#a6adc8">Estimate</text></g>
<text x="22" y="106.66666666666667"
      font-family="system-ui, -apple-system, sans-serif"
      font-size="14px"
      font-weight="400"
      font-style="normal"
      fill="#cdd6f4">CheckMate 067</text>
<line x1="12" x2="888"
      y1="116" y2="116"
      stroke="#45475a" stroke-width="1" opacity="0.5"/>
<rect x="12" y="116"
        width="876" height="28"
        fill="#6c7086" opacity="0.1"/>
<text x="22" y="134.66666666666666"
      font-family="system-ui, -apple-system, sans-serif"
      font-size="14px"
      font-weight="400"
      font-style="normal"
      fill="#cdd6f4">KEYNOTE-006</text>
<line x1="12" x2="888"
      y1="144" y2="144"
      stroke="#45475a" stroke-width="1" opacity="0.5"/>
<text x="22" y="162.66666666666666"
      font-family="system-ui, -apple-system, sans-serif"
      font-size="14px"
      font-weight="400"
      font-style="normal"
      fill="#cdd6f4">CheckMate 238</text>
<line x1="12" x2="888"
      y1="172" y2="172"
      stroke="#45475a" stroke-width="1" opacity="0.5"/>
<rect x="12" y="172"
        width="876" height="28"
        fill="#6c7086" opacity="0.1"/>
<text x="22" y="190.66666666666666"
      font-family="system-ui, -apple-system, sans-serif"
      font-size="14px"
      font-weight="400"
      font-style="normal"
      fill="#cdd6f4">KEYNOTE-054</text>
<line x1="12" x2="888"
      y1="200" y2="200"
      stroke="#45475a" stroke-width="1" opacity="0.5"/>
<text x="22" y="218.66666666666666"
      font-family="system-ui, -apple-system, sans-serif"
      font-size="14px"
      font-weight="400"
      font-style="normal"
      fill="#cdd6f4">CheckMate 915</text>
<line x1="12" x2="888"
      y1="228" y2="228"
      stroke="#45475a" stroke-width="1" opacity="0.5"/>

</svg>
