<?xml version="1.0" encoding="UTF-8"?>
<svg xmlns="http://www.w3.org/2000/svg"
  width="500" height="297.297"
  viewBox="0 0 407 242">
<style>
  text {
    font-variant-numeric: tabular-nums;
  }
</style>
<rect width="100%" height="100%" fill="#FBFBFB"/>
<text x="8" y="25"
      font-family="'Helvetica Neue', Helvetica, Arial, sans-serif"
      font-size="14px"
      font-weight="600"
      fill="#121212">Figure 1. Primary Endpoint</text>
<line x1="8" x2="399"
      y1="45" y2="45"
      stroke="#A7A7A7" stroke-width="2"/>
<text class="cell-text" dominant-baseline="central" x="16" y="59.5"
        font-family="'Helvetica Neue', Helvetica, Arial, sans-serif"
        font-size="14.7px"
        font-weight="400"
        fill="#121212">Study</text>
<text class="cell-text" dominant-baseline="central" x="272" y="59.5"
          font-family="'Helvetica Neue', Helvetica, Arial, sans-serif"
          font-size="14.7px"
          font-weight="400"
          text-anchor="start"
          fill="#121212">HR (95% CI)</text>
<line x1="8" x2="399"
        y1="74" y2="74"
        stroke="#A7A7A7" stroke-width="2"/>
<rect x="8" y="74"
            width="391" height="20"
            fill="#F4F4F4"/>
<rect x="8" y="114"
            width="391" height="20"
            fill="#F4F4F4"/>
<line x1="222.0006922796589" x2="222.0006922796589" y1="74" y2="154"
    stroke="#303030" stroke-width="1" stroke-opacity="0.6" stroke-dasharray="6,4"/>

        <g class="interval effect-0">
          <line x1="140.95538520317044" x2="214.36920080645828" y1="84" y2="84"
            stroke="#535353" stroke-width="1.5"/>
          <line x1="140.95538520317044" x2="140.95538520317044" y1="81" y2="87" stroke="#535353" stroke-width="1.5"/>
          <line x1="214.36920080645828" x2="214.36920080645828" y1="81" y2="87" stroke="#535353" stroke-width="1.5"/>
          <circle cx="177.20183551768244" cy="84" r="6" fill="#6F6F6F"/>
        </g>

        <g class="interval effect-0">
          <line x1="138.36781624714052" x2="237.52752822574973" y1="104" y2="104"
            stroke="#535353" stroke-width="1.5"/>
          <line x1="138.36781624714052" x2="138.36781624714052" y1="101" y2="107" stroke="#535353" stroke-width="1.5"/>
          <line x1="237.52752822574973" x2="237.52752822574973" y1="101" y2="107" stroke="#535353" stroke-width="1.5"/>
          <circle cx="186.92957821322443" cy="104" r="6" fill="#6F6F6F"/>
        </g>

        <g class="interval effect-0">
          <line x1="185.03424729798235" x2="217.46892677355368" y1="124" y2="124"
            stroke="#535353" stroke-width="1.5"/>
          <line x1="185.03424729798235" x2="185.03424729798235" y1="121" y2="127" stroke="#535353" stroke-width="1.5"/>
          <line x1="217.46892677355368" x2="217.46892677355368" y1="121" y2="127" stroke="#535353" stroke-width="1.5"/>
          <circle cx="201.28107791123773" cy="124" r="6" fill="#6F6F6F"/>
        </g>

        <g class="interval effect-0">
          <line x1="186.92957821322443" x2="220.50538858968153" y1="144" y2="144"
            stroke="#535353" stroke-width="1.5"/>
          <line x1="186.92957821322443" x2="186.92957821322443" y1="141" y2="147" stroke="#535353" stroke-width="1.5"/>
          <line x1="220.50538858968153" x2="220.50538858968153" y1="141" y2="147" stroke="#535353" stroke-width="1.5"/>
          <circle cx="202.9814560165861" cy="144" r="6" fill="#6F6F6F"/>
        </g>
<g transform="translate(0, 162)"><line x1="104" x2="264"
    y1="0" y2="0" stroke="#A7A7A7" stroke-width="1"/>
<line x1="145.9993077203411" x2="145.9993077203411" y1="0" y2="4"
      stroke="#A7A7A7" stroke-width="1"/>
<text x="145.9993077203411" y="17" text-anchor="middle"
      font-family="'Helvetica Neue', Helvetica, Arial, sans-serif"
      font-size="13px"
      font-weight="400"
      font-style="normal"
      fill="#565656">0.60</text>
<line x1="222.0006922796589" x2="222.0006922796589" y1="0" y2="4"
      stroke="#A7A7A7" stroke-width="1"/>
<text x="222.0006922796589" y="17" text-anchor="middle"
      font-family="'Helvetica Neue', Helvetica, Arial, sans-serif"
      font-size="13px"
      font-weight="400"
      font-style="normal"
      fill="#565656">1.00</text>
<text x="184" y="31"
      text-anchor="middle"
      font-family="'Helvetica Neue', Helvetica, Arial, sans-serif"
      font-size="13px"
      font-weight="400"
      font-style="normal"
      fill="#303030">Effect</text></g>
<text class="cell-text" dominant-baseline="central" x="16" y="84"
    font-family="'Helvetica Neue', Helvetica, Arial, sans-serif"
    font-size="14px"
    font-weight="400"
    font-style="normal"
    fill="#121212">SUSTAIN-6</text>
<g font-family="'Helvetica Neue', Helvetica, Arial, sans-serif" font-size="14px" font-weight="400" font-style="normal" fill="#121212" transform="translate(272 75.6)"><g><g transform="translate(0 0)"><text y="8.40" dominant-baseline="central">0.74</text></g><g transform="translate(30.1 0)"><text y="8.40" dominant-baseline="central"> </text></g><g transform="translate(35 0)"><g><g transform="translate(0 0)"><text y="8.40" dominant-baseline="central">(</text></g><g transform="translate(4.8999999999999995 0)"><text y="8.40" dominant-baseline="central">0.58</text></g><g transform="translate(35 0)"><text y="8.40" dominant-baseline="central">, </text></g><g transform="translate(44.8 0)"><text y="8.40" dominant-baseline="central">0.95</text></g><g transform="translate(74.9 0)"><text y="8.40" dominant-baseline="central">)</text></g></g></g></g></g>
<line x1="8" x2="399" y1="94" y2="94" stroke="#BFBFBF" stroke-width="1"/>
<text class="cell-text" dominant-baseline="central" x="16" y="104"
    font-family="'Helvetica Neue', Helvetica, Arial, sans-serif"
    font-size="14px"
    font-weight="400"
    font-style="normal"
    fill="#121212">PIONEER 6</text>
<g font-family="'Helvetica Neue', Helvetica, Arial, sans-serif" font-size="14px" font-weight="400" font-style="normal" fill="#121212" transform="translate(272 95.6)"><g><g transform="translate(0 0)"><text y="8.40" dominant-baseline="central">0.79</text></g><g transform="translate(30.1 0)"><text y="8.40" dominant-baseline="central"> </text></g><g transform="translate(35 0)"><g><g transform="translate(0 0)"><text y="8.40" dominant-baseline="central">(</text></g><g transform="translate(4.8999999999999995 0)"><text y="8.40" dominant-baseline="central">0.57</text></g><g transform="translate(35 0)"><text y="8.40" dominant-baseline="central">, </text></g><g transform="translate(44.8 0)"><text y="8.40" dominant-baseline="central">1.11</text></g><g transform="translate(64.39999999999999 0)"><text y="8.40" dominant-baseline="central">)</text></g></g></g></g></g>
<line x1="8" x2="399" y1="114" y2="114" stroke="#BFBFBF" stroke-width="1"/>
<text class="cell-text" dominant-baseline="central" x="16" y="124"
    font-family="'Helvetica Neue', Helvetica, Arial, sans-serif"
    font-size="14px"
    font-weight="400"
    font-style="normal"
    fill="#121212">LEADER</text>
<g font-family="'Helvetica Neue', Helvetica, Arial, sans-serif" font-size="14px" font-weight="400" font-style="normal" fill="#121212" transform="translate(272 115.6)"><g><g transform="translate(0 0)"><text y="8.40" dominant-baseline="central">0.87</text></g><g transform="translate(30.1 0)"><text y="8.40" dominant-baseline="central"> </text></g><g transform="translate(35 0)"><g><g transform="translate(0 0)"><text y="8.40" dominant-baseline="central">(</text></g><g transform="translate(4.8999999999999995 0)"><text y="8.40" dominant-baseline="central">0.78</text></g><g transform="translate(35 0)"><text y="8.40" dominant-baseline="central">, </text></g><g transform="translate(44.8 0)"><text y="8.40" dominant-baseline="central">0.97</text></g><g transform="translate(74.9 0)"><text y="8.40" dominant-baseline="central">)</text></g></g></g></g></g>
<line x1="8" x2="399" y1="134" y2="134" stroke="#BFBFBF" stroke-width="1"/>
<text class="cell-text" dominant-baseline="central" x="16" y="144"
    font-family="'Helvetica Neue', Helvetica, Arial, sans-serif"
    font-size="14px"
    font-weight="400"
    font-style="normal"
    fill="#121212">REWIND</text>
<g font-family="'Helvetica Neue', Helvetica, Arial, sans-serif" font-size="14px" font-weight="400" font-style="normal" fill="#121212" transform="translate(272 135.6)"><g><g transform="translate(0 0)"><text y="8.40" dominant-baseline="central">0.88</text></g><g transform="translate(30.1 0)"><text y="8.40" dominant-baseline="central"> </text></g><g transform="translate(35 0)"><g><g transform="translate(0 0)"><text y="8.40" dominant-baseline="central">(</text></g><g transform="translate(4.8999999999999995 0)"><text y="8.40" dominant-baseline="central">0.79</text></g><g transform="translate(35 0)"><text y="8.40" dominant-baseline="central">, </text></g><g transform="translate(44.8 0)"><text y="8.40" dominant-baseline="central">0.99</text></g><g transform="translate(74.9 0)"><text y="8.40" dominant-baseline="central">)</text></g></g></g></g></g>
<line x1="8" x2="399" y1="154" y2="154" stroke="#BFBFBF" stroke-width="1"/>

</svg>
